# Blender v2.78 (sub 0) OBJ File: 'HighPolyCountHalfSphere.blend'
# www.blender.org
mtllib test.mtl
o Sphere_Sphere.004
v 0.000000 0.965926 -0.258819
v 0.000000 0.923880 -0.382683
v 0.000000 0.793353 -0.608761
v 0.000000 0.707107 -0.707107
v 0.000000 0.608761 -0.793353
v 0.000000 0.500000 -0.866025
v 0.000000 0.382684 -0.923880
v 0.000000 0.258819 -0.965926
v 0.000000 0.130526 -0.991445
v 0.000000 0.000000 -1.000000
v 0.040335 0.991445 -0.124138
v 0.079979 0.965926 -0.246152
v 0.118256 0.923880 -0.363954
v 0.154508 0.866025 -0.475528
v 0.188118 0.793353 -0.578967
v 0.218508 0.707107 -0.672499
v 0.245160 0.608761 -0.754524
v 0.267616 0.500000 -0.823639
v 0.285494 0.382684 -0.878662
v 0.298487 0.258819 -0.918650
v 0.306373 0.130526 -0.942920
v 0.309017 0.000000 -0.951057
v 0.076721 0.991445 -0.105598
v 0.152130 0.965926 -0.209389
v 0.224935 0.923880 -0.309598
v 0.293892 0.866025 -0.404509
v 0.357821 0.793353 -0.492498
v 0.415627 0.707107 -0.572061
v 0.466321 0.608761 -0.641836
v 0.509037 0.500000 -0.700629
v 0.543043 0.382684 -0.747434
v 0.567757 0.258819 -0.781451
v 0.582756 0.130526 -0.802096
v 0.587785 0.000000 -0.809017
v -0.000000 1.000000 -0.000000
v 0.105598 0.991445 -0.076722
v 0.209389 0.965926 -0.152130
v 0.309597 0.923880 -0.224936
v 0.404508 0.866025 -0.293893
v 0.492498 0.793353 -0.357821
v 0.572061 0.707107 -0.415627
v 0.641836 0.608761 -0.466322
v 0.700629 0.500000 -0.509037
v 0.747434 0.382684 -0.543043
v 0.781450 0.258819 -0.567757
v 0.802095 0.130526 -0.582757
v 0.809017 0.000000 -0.587785
v 0.124137 0.991445 -0.040335
v 0.246151 0.965926 -0.079980
v 0.363953 0.923880 -0.118256
v 0.475528 0.866025 -0.154509
v 0.578966 0.793353 -0.188118
v 0.672498 0.707107 -0.218508
v 0.754524 0.608761 -0.245160
v 0.823639 0.500000 -0.267617
v 0.878661 0.382684 -0.285495
v 0.918650 0.258819 -0.298488
v 0.942920 0.130526 -0.306374
v 0.951056 0.000000 -0.309017
v 0.130526 0.991445 -0.000000
v 0.258819 0.965926 -0.000000
v 0.382683 0.923880 -0.000000
v 0.500000 0.866025 -0.000000
v 0.608761 0.793353 -0.000000
v 0.707106 0.707107 -0.000000
v 0.793353 0.608761 -0.000000
v 0.866025 0.500000 -0.000000
v 0.923879 0.382684 -0.000000
v 0.965926 0.258819 -0.000000
v 0.991444 0.130526 -0.000000
v 1.000000 0.000000 -0.000000
v 0.124137 0.991445 0.040334
v 0.246151 0.965926 0.079979
v 0.363953 0.923880 0.118255
v 0.475528 0.866025 0.154508
v 0.578966 0.793353 0.188117
v 0.672498 0.707107 0.218508
v 0.754524 0.608761 0.245159
v 0.823639 0.500000 0.267616
v 0.878661 0.382684 0.285494
v 0.918650 0.258819 0.298487
v 0.942920 0.130526 0.306373
v 0.951056 0.000000 0.309016
v 0.105598 0.991445 0.076721
v 0.209389 0.965926 0.152129
v 0.309597 0.923880 0.224935
v 0.404508 0.866025 0.293892
v 0.492498 0.793353 0.357820
v 0.572061 0.707107 0.415626
v 0.641836 0.608761 0.466321
v 0.700629 0.500000 0.509036
v 0.747434 0.382684 0.543042
v 0.781450 0.258819 0.567757
v 0.802095 0.130526 0.582756
v 0.809017 0.000000 0.587785
v 0.076721 0.991445 0.105597
v 0.152130 0.965926 0.209388
v 0.224936 0.923880 0.309597
v 0.293893 0.866025 0.404508
v 0.357821 0.793353 0.492498
v 0.415627 0.707107 0.572061
v 0.466321 0.608761 0.641836
v 0.509037 0.500000 0.700629
v 0.543043 0.382684 0.747434
v 0.567757 0.258819 0.781450
v 0.582756 0.130526 0.802095
v 0.587785 0.000000 0.809016
v 0.040335 0.991445 0.124137
v 0.079979 0.965926 0.246151
v 0.118256 0.923880 0.363953
v 0.154509 0.866025 0.475528
v 0.188118 0.793353 0.578966
v 0.218508 0.707107 0.672498
v 0.245160 0.608761 0.754523
v 0.267616 0.500000 0.823638
v 0.285494 0.382684 0.878661
v 0.298487 0.258819 0.918650
v 0.306373 0.130526 0.942920
v 0.309017 0.000000 0.951056
v 0.000000 0.991445 0.130525
v -0.000000 0.965926 0.258818
v 0.000000 0.923880 0.382683
v 0.000000 0.866025 0.499999
v 0.000000 0.793353 0.608761
v 0.000000 0.707107 0.707106
v 0.000000 0.608761 0.793353
v -0.000000 0.500000 0.866025
v -0.000000 0.382684 0.923879
v -0.000000 0.258819 0.965926
v -0.000000 0.130526 0.991444
v -0.000000 0.000000 0.999999
v -0.040335 0.991445 0.124137
v -0.079979 0.965926 0.246151
v -0.118256 0.923880 0.363953
v -0.154508 0.866025 0.475528
v -0.188118 0.793353 0.578966
v -0.218508 0.707107 0.672498
v -0.245160 0.608761 0.754523
v -0.267617 0.500000 0.823639
v -0.285495 0.382684 0.878661
v -0.298488 0.258819 0.918650
v -0.306373 0.130526 0.942920
v -0.309017 0.000000 0.951056
v -0.076721 0.991445 0.105597
v -0.152130 0.965926 0.209388
v -0.224936 0.923880 0.309597
v -0.293892 0.866025 0.404508
v -0.357821 0.793353 0.492498
v -0.415627 0.707107 0.572061
v -0.466321 0.608761 0.641836
v -0.509037 0.500000 0.700629
v -0.543043 0.382684 0.747434
v -0.567757 0.258819 0.781450
v -0.582757 0.130526 0.802095
v -0.587785 0.000000 0.809017
v -0.105598 0.991445 0.076721
v -0.209389 0.965926 0.152129
v -0.309597 0.923880 0.224935
v -0.404508 0.866025 0.293892
v -0.492498 0.793353 0.357821
v -0.572061 0.707107 0.415626
v -0.641836 0.608761 0.466321
v -0.700629 0.500000 0.509037
v -0.747434 0.382684 0.543042
v -0.781451 0.258819 0.567757
v -0.802096 0.130526 0.582756
v -0.809017 0.000000 0.587785
v -0.124137 0.991445 0.040334
v -0.246151 0.965926 0.079979
v -0.363953 0.923880 0.118255
v -0.475528 0.866025 0.154508
v -0.578966 0.793353 0.188117
v -0.672498 0.707107 0.218508
v -0.754524 0.608761 0.245159
v -0.823639 0.500000 0.267616
v -0.878662 0.382684 0.285494
v -0.918650 0.258819 0.298487
v -0.942920 0.130526 0.306373
v -0.951056 0.000000 0.309017
v -0.130526 0.991445 -0.000000
v -0.258819 0.965926 -0.000000
v -0.382683 0.923880 -0.000000
v -0.500000 0.866025 -0.000000
v -0.608761 0.793353 -0.000000
v -0.707107 0.707107 -0.000000
v -0.793353 0.608761 -0.000000
v -0.866025 0.500000 -0.000000
v -0.923880 0.382684 -0.000000
v -0.965926 0.258819 -0.000000
v -0.991445 0.130526 -0.000000
v -1.000000 0.000000 -0.000000
v -0.124137 0.991445 -0.040335
v -0.246151 0.965926 -0.079980
v -0.363953 0.923880 -0.118256
v -0.475528 0.866025 -0.154509
v -0.578966 0.793353 -0.188118
v -0.672498 0.707107 -0.218508
v -0.754524 0.608761 -0.245160
v -0.823639 0.500000 -0.267617
v -0.878662 0.382684 -0.285495
v -0.918650 0.258819 -0.298488
v -0.942920 0.130526 -0.306374
v -0.951056 0.000000 -0.309017
v -0.105598 0.991445 -0.076722
v -0.209389 0.965926 -0.152130
v -0.309597 0.923880 -0.224936
v -0.404508 0.866025 -0.293893
v -0.492498 0.793353 -0.357821
v -0.572061 0.707107 -0.415627
v -0.641836 0.608761 -0.466322
v -0.700629 0.500000 -0.509037
v -0.747434 0.382684 -0.543043
v -0.781451 0.258819 -0.567758
v -0.802096 0.130526 -0.582757
v -0.809017 0.000000 -0.587786
v -0.076721 0.991445 -0.105598
v -0.152130 0.965926 -0.209389
v -0.224936 0.923880 -0.309598
v -0.293893 0.866025 -0.404509
v -0.357821 0.793353 -0.492499
v -0.415627 0.707107 -0.572062
v -0.466321 0.608761 -0.641837
v -0.509037 0.500000 -0.700630
v -0.543043 0.382684 -0.747435
v -0.567757 0.258819 -0.781451
v -0.582757 0.130526 -0.802096
v -0.587785 0.000000 -0.809017
v -0.040335 0.991445 -0.124138
v -0.079979 0.965926 -0.246152
v -0.118256 0.923880 -0.363954
v -0.154509 0.866025 -0.475528
v -0.188118 0.793353 -0.578967
v -0.218508 0.707107 -0.672499
v -0.245160 0.608761 -0.754524
v -0.267617 0.500000 -0.823640
v -0.285495 0.382684 -0.878662
v -0.298488 0.258819 -0.918651
v -0.306373 0.130526 -0.942921
v -0.309017 0.000000 -0.951057
v -0.000000 0.991445 -0.130526
v -0.000000 0.866025 -0.500000
vn 0.0000 0.7038 -0.7103
vn 0.0000 0.7902 -0.6128
vn 0.1894 0.7902 -0.5828
vn 0.2195 0.7038 -0.6756
vn 0.0000 0.6056 -0.7957
vn 0.2459 0.6056 -0.7568
vn 0.0000 0.4972 -0.8676
vn 0.2681 0.4972 -0.8252
vn 0.0000 0.9906 -0.1369
vn 0.0000 1.0000 0.0000
vn 0.0423 0.9906 -0.1302
vn 0.0000 0.3804 -0.9248
vn 0.2858 0.3804 -0.8795
vn 0.0000 0.9643 -0.2649
vn 0.0819 0.9643 -0.2519
vn 0.0000 0.2572 -0.9663
vn 0.2986 0.2572 -0.9190
vn 0.0000 0.9215 -0.3882
vn 0.1200 0.9215 -0.3692
vn 0.0000 0.1297 -0.9915
vn 0.3064 0.1297 -0.9430
vn 0.0000 0.8632 -0.5049
vn 0.1560 0.8632 -0.4801
vn 0.0000 0.0654 -0.9978
vn 0.3083 0.0654 -0.9490
vn 0.5828 0.1297 -0.8022
vn 0.5865 0.0654 -0.8073
vn 0.2967 0.8632 -0.4084
vn 0.3602 0.7902 -0.4958
vn 0.4175 0.7038 -0.5747
vn 0.4677 0.6056 -0.6438
vn 0.5100 0.4972 -0.7019
vn 0.0805 0.9906 -0.1108
vn 0.5436 0.3804 -0.7482
vn 0.1557 0.9643 -0.2143
vn 0.5680 0.2572 -0.7818
vn 0.2282 0.9215 -0.3141
vn 0.5747 0.7038 -0.4175
vn 0.6438 0.6056 -0.4677
vn 0.7019 0.4972 -0.5100
vn 0.1108 0.9906 -0.0805
vn 0.7482 0.3804 -0.5436
vn 0.2143 0.9643 -0.1557
vn 0.7818 0.2572 -0.5680
vn 0.3141 0.9215 -0.2282
vn 0.8022 0.1297 -0.5828
vn 0.4084 0.8632 -0.2967
vn 0.8073 0.0654 -0.5865
vn 0.4958 0.7902 -0.3602
vn 0.8795 0.3804 -0.2858
vn 0.9190 0.2572 -0.2986
vn 0.2519 0.9643 -0.0819
vn 0.3692 0.9215 -0.1200
vn 0.9430 0.1297 -0.3064
vn 0.4801 0.8632 -0.1560
vn 0.9490 0.0654 -0.3083
vn 0.5828 0.7902 -0.1894
vn 0.6756 0.7038 -0.2195
vn 0.7568 0.6056 -0.2459
vn 0.8252 0.4972 -0.2681
vn 0.1302 0.9906 -0.0423
vn 0.6128 0.7902 0.0000
vn 0.7103 0.7038 0.0000
vn 0.7957 0.6056 0.0000
vn 0.8676 0.4972 0.0000
vn 0.1369 0.9906 0.0000
vn 0.9248 0.3804 0.0000
vn 0.2649 0.9643 0.0000
vn 0.9663 0.2572 0.0000
vn 0.3882 0.9215 0.0000
vn 0.9915 0.1297 0.0000
vn 0.5049 0.8632 0.0000
vn 0.9978 0.0654 0.0000
vn 0.7568 0.6056 0.2459
vn 0.8252 0.4972 0.2681
vn 0.1302 0.9906 0.0423
vn 0.8795 0.3804 0.2858
vn 0.2519 0.9643 0.0819
vn 0.9190 0.2572 0.2986
vn 0.3692 0.9215 0.1200
vn 0.9430 0.1297 0.3064
vn 0.4801 0.8632 0.1560
vn 0.9490 0.0654 0.3083
vn 0.5828 0.7902 0.1894
vn 0.6756 0.7038 0.2195
vn 0.7818 0.2572 0.5680
vn 0.8022 0.1297 0.5828
vn 0.3141 0.9215 0.2282
vn 0.4084 0.8632 0.2967
vn 0.8073 0.0654 0.5865
vn 0.4958 0.7902 0.3602
vn 0.5747 0.7038 0.4175
vn 0.6438 0.6056 0.4677
vn 0.7019 0.4972 0.5100
vn 0.1108 0.9906 0.0805
vn 0.7482 0.3804 0.5436
vn 0.2143 0.9643 0.1557
vn 0.4175 0.7038 0.5747
vn 0.4677 0.6056 0.6438
vn 0.5100 0.4972 0.7019
vn 0.0805 0.9906 0.1108
vn 0.5436 0.3804 0.7482
vn 0.1557 0.9643 0.2143
vn 0.5680 0.2572 0.7818
vn 0.2282 0.9215 0.3141
vn 0.5828 0.1297 0.8022
vn 0.2967 0.8632 0.4084
vn 0.5865 0.0654 0.8073
vn 0.3602 0.7902 0.4958
vn 0.2681 0.4972 0.8252
vn 0.2858 0.3804 0.8795
vn 0.0423 0.9906 0.1302
vn 0.0819 0.9643 0.2519
vn 0.2986 0.2572 0.9190
vn 0.1200 0.9215 0.3692
vn 0.3064 0.1297 0.9430
vn 0.1560 0.8632 0.4801
vn 0.3083 0.0654 0.9490
vn 0.1894 0.7902 0.5828
vn 0.2195 0.7038 0.6756
vn 0.2459 0.6056 0.7568
vn 0.0000 0.1297 0.9915
vn 0.0000 0.0654 0.9978
vn 0.0000 0.8632 0.5049
vn 0.0000 0.7902 0.6128
vn 0.0000 0.7038 0.7103
vn 0.0000 0.6056 0.7957
vn 0.0000 0.4972 0.8676
vn 0.0000 0.9906 0.1369
vn 0.0000 0.3804 0.9248
vn 0.0000 0.9643 0.2649
vn 0.0000 0.2572 0.9663
vn 0.0000 0.9215 0.3882
vn -0.2459 0.6056 0.7568
vn -0.2681 0.4972 0.8252
vn -0.0423 0.9906 0.1302
vn -0.2858 0.3804 0.8795
vn -0.0819 0.9643 0.2519
vn -0.2986 0.2572 0.9190
vn -0.1200 0.9215 0.3692
vn -0.3064 0.1297 0.9430
vn -0.1560 0.8632 0.4801
vn -0.3083 0.0654 0.9490
vn -0.1894 0.7902 0.5828
vn -0.2195 0.7038 0.6756
vn -0.5436 0.3804 0.7482
vn -0.5680 0.2572 0.7818
vn -0.1557 0.9643 0.2143
vn -0.2282 0.9215 0.3141
vn -0.5828 0.1297 0.8022
vn -0.2967 0.8632 0.4084
vn -0.5865 0.0654 0.8073
vn -0.3602 0.7902 0.4958
vn -0.4175 0.7038 0.5747
vn -0.4677 0.6056 0.6438
vn -0.5100 0.4972 0.7019
vn -0.0805 0.9906 0.1108
vn -0.4958 0.7902 0.3602
vn -0.5747 0.7038 0.4175
vn -0.6438 0.6056 0.4677
vn -0.7019 0.4972 0.5100
vn -0.1108 0.9906 0.0805
vn -0.7482 0.3804 0.5436
vn -0.2143 0.9643 0.1557
vn -0.7818 0.2572 0.5680
vn -0.3141 0.9215 0.2282
vn -0.8022 0.1297 0.5828
vn -0.4084 0.8632 0.2967
vn -0.8073 0.0654 0.5865
vn -0.1302 0.9906 0.0423
vn -0.8252 0.4972 0.2681
vn -0.8795 0.3804 0.2858
vn -0.2519 0.9643 0.0819
vn -0.9190 0.2572 0.2986
vn -0.3692 0.9215 0.1200
vn -0.9430 0.1297 0.3064
vn -0.4801 0.8632 0.1560
vn -0.9490 0.0654 0.3083
vn -0.5828 0.7902 0.1894
vn -0.6756 0.7038 0.2195
vn -0.7568 0.6056 0.2459
vn -0.9663 0.2572 0.0000
vn -0.9915 0.1297 0.0000
vn -0.3882 0.9215 0.0000
vn -0.5049 0.8632 0.0000
vn -0.9978 0.0654 0.0000
vn -0.6128 0.7902 0.0000
vn -0.7103 0.7038 0.0000
vn -0.7957 0.6056 0.0000
vn -0.8676 0.4972 0.0000
vn -0.1369 0.9906 0.0000
vn -0.9248 0.3804 0.0000
vn -0.2649 0.9643 0.0000
vn -0.6756 0.7038 -0.2195
vn -0.7568 0.6056 -0.2459
vn -0.8252 0.4972 -0.2681
vn -0.1302 0.9906 -0.0423
vn -0.8795 0.3804 -0.2858
vn -0.2519 0.9643 -0.0819
vn -0.9190 0.2572 -0.2986
vn -0.3692 0.9215 -0.1200
vn -0.9430 0.1297 -0.3064
vn -0.4801 0.8632 -0.1560
vn -0.9490 0.0654 -0.3083
vn -0.5828 0.7902 -0.1894
vn -0.1108 0.9906 -0.0805
vn -0.2143 0.9643 -0.1557
vn -0.7482 0.3804 -0.5436
vn -0.7818 0.2572 -0.5680
vn -0.3141 0.9215 -0.2282
vn -0.8022 0.1297 -0.5828
vn -0.4084 0.8632 -0.2967
vn -0.8073 0.0654 -0.5865
vn -0.4958 0.7902 -0.3602
vn -0.5747 0.7038 -0.4175
vn -0.6438 0.6056 -0.4677
vn -0.7019 0.4972 -0.5100
vn -0.5828 0.1297 -0.8022
vn -0.5865 0.0654 -0.8073
vn -0.2967 0.8632 -0.4084
vn -0.3602 0.7902 -0.4958
vn -0.4175 0.7038 -0.5747
vn -0.4677 0.6056 -0.6438
vn -0.5100 0.4972 -0.7019
vn -0.0805 0.9906 -0.1108
vn -0.5436 0.3804 -0.7482
vn -0.1557 0.9643 -0.2143
vn -0.5680 0.2572 -0.7818
vn -0.2282 0.9215 -0.3141
vn -0.2459 0.6056 -0.7568
vn -0.2681 0.4972 -0.8252
vn -0.0423 0.9906 -0.1302
vn -0.2858 0.3804 -0.8795
vn -0.0819 0.9643 -0.2519
vn -0.2986 0.2572 -0.9190
vn -0.1200 0.9215 -0.3692
vn -0.3064 0.1297 -0.9430
vn -0.1560 0.8632 -0.4801
vn -0.3083 0.0654 -0.9490
vn -0.1894 0.7902 -0.5828
vn -0.2195 0.7038 -0.6756
usemtl None
s 1
f 4//1 3//2 15//3 16//4
f 5//5 4//1 16//4 17//6
f 6//7 5//5 17//6 18//8
f 240//9 35//10 11//11
f 7//12 6//7 18//8 19//13
f 1//14 240//9 11//11 12//15
f 8//16 7//12 19//13 20//17
f 2//18 1//14 12//15 13//19
f 9//20 8//16 20//17 21//21
f 241//22 2//18 13//19 14//23
f 10//24 9//20 21//21 22//25
f 3//2 241//22 14//23 15//3
f 22//25 21//21 33//26 34//27
f 15//3 14//23 26//28 27//29
f 16//4 15//3 27//29 28//30
f 17//6 16//4 28//30 29//31
f 18//8 17//6 29//31 30//32
f 11//11 35//10 23//33
f 19//13 18//8 30//32 31//34
f 12//15 11//11 23//33 24//35
f 20//17 19//13 31//34 32//36
f 13//19 12//15 24//35 25//37
f 21//21 20//17 32//36 33//26
f 14//23 13//19 25//37 26//28
f 29//31 28//30 41//38 42//39
f 30//32 29//31 42//39 43//40
f 23//33 35//10 36//41
f 31//34 30//32 43//40 44//42
f 24//35 23//33 36//41 37//43
f 32//36 31//34 44//42 45//44
f 25//37 24//35 37//43 38//45
f 33//26 32//36 45//44 46//46
f 26//28 25//37 38//45 39//47
f 34//27 33//26 46//46 47//48
f 27//29 26//28 39//47 40//49
f 28//30 27//29 40//49 41//38
f 45//44 44//42 56//50 57//51
f 38//45 37//43 49//52 50//53
f 46//46 45//44 57//51 58//54
f 39//47 38//45 50//53 51//55
f 47//48 46//46 58//54 59//56
f 40//49 39//47 51//55 52//57
f 41//38 40//49 52//57 53//58
f 42//39 41//38 53//58 54//59
f 43//40 42//39 54//59 55//60
f 36//41 35//10 48//61
f 44//42 43//40 55//60 56//50
f 37//43 36//41 48//61 49//52
f 53//58 52//57 64//62 65//63
f 54//59 53//58 65//63 66//64
f 55//60 54//59 66//64 67//65
f 48//61 35//10 60//66
f 56//50 55//60 67//65 68//67
f 49//52 48//61 60//66 61//68
f 57//51 56//50 68//67 69//69
f 50//53 49//52 61//68 62//70
f 58//54 57//51 69//69 70//71
f 51//55 50//53 62//70 63//72
f 59//56 58//54 70//71 71//73
f 52//57 51//55 63//72 64//62
f 67//65 66//64 78//74 79//75
f 60//66 35//10 72//76
f 68//67 67//65 79//75 80//77
f 61//68 60//66 72//76 73//78
f 69//69 68//67 80//77 81//79
f 62//70 61//68 73//78 74//80
f 70//71 69//69 81//79 82//81
f 63//72 62//70 74//80 75//82
f 71//73 70//71 82//81 83//83
f 64//62 63//72 75//82 76//84
f 65//63 64//62 76//84 77//85
f 66//64 65//63 77//85 78//74
f 82//81 81//79 93//86 94//87
f 75//82 74//80 86//88 87//89
f 83//83 82//81 94//87 95//90
f 76//84 75//82 87//89 88//91
f 77//85 76//84 88//91 89//92
f 78//74 77//85 89//92 90//93
f 79//75 78//74 90//93 91//94
f 72//76 35//10 84//95
f 80//77 79//75 91//94 92//96
f 73//78 72//76 84//95 85//97
f 81//79 80//77 92//96 93//86
f 74//80 73//78 85//97 86//88
f 90//93 89//92 101//98 102//99
f 91//94 90//93 102//99 103//100
f 84//95 35//10 96//101
f 92//96 91//94 103//100 104//102
f 85//97 84//95 96//101 97//103
f 93//86 92//96 104//102 105//104
f 86//88 85//97 97//103 98//105
f 94//87 93//86 105//104 106//106
f 87//89 86//88 98//105 99//107
f 95//90 94//87 106//106 107//108
f 88//91 87//89 99//107 100//109
f 89//92 88//91 100//109 101//98
f 104//102 103//100 115//110 116//111
f 97//103 96//101 108//112 109//113
f 105//104 104//102 116//111 117//114
f 98//105 97//103 109//113 110//115
f 106//106 105//104 117//114 118//116
f 99//107 98//105 110//115 111//117
f 107//108 106//106 118//116 119//118
f 100//109 99//107 111//117 112//119
f 101//98 100//109 112//119 113//120
f 102//99 101//98 113//120 114//121
f 103//100 102//99 114//121 115//110
f 96//101 35//10 108//112
f 119//118 118//116 130//122 131//123
f 112//119 111//117 123//124 124//125
f 113//120 112//119 124//125 125//126
f 114//121 113//120 125//126 126//127
f 115//110 114//121 126//127 127//128
f 108//112 35//10 120//129
f 116//111 115//110 127//128 128//130
f 109//113 108//112 120//129 121//131
f 117//114 116//111 128//130 129//132
f 110//115 109//113 121//131 122//133
f 118//116 117//114 129//132 130//122
f 111//117 110//115 122//133 123//124
f 127//128 126//127 138//134 139//135
f 120//129 35//10 132//136
f 128//130 127//128 139//135 140//137
f 121//131 120//129 132//136 133//138
f 129//132 128//130 140//137 141//139
f 122//133 121//131 133//138 134//140
f 130//122 129//132 141//139 142//141
f 123//124 122//133 134//140 135//142
f 131//123 130//122 142//141 143//143
f 124//125 123//124 135//142 136//144
f 125//126 124//125 136//144 137//145
f 126//127 125//126 137//145 138//134
f 141//139 140//137 152//146 153//147
f 134//140 133//138 145//148 146//149
f 142//141 141//139 153//147 154//150
f 135//142 134//140 146//149 147//151
f 143//143 142//141 154//150 155//152
f 136//144 135//142 147//151 148//153
f 137//145 136//144 148//153 149//154
f 138//134 137//145 149//154 150//155
f 139//135 138//134 150//155 151//156
f 132//136 35//10 144//157
f 140//137 139//135 151//156 152//146
f 133//138 132//136 144//157 145//148
f 149//154 148//153 160//158 161//159
f 150//155 149//154 161//159 162//160
f 151//156 150//155 162//160 163//161
f 144//157 35//10 156//162
f 152//146 151//156 163//161 164//163
f 145//148 144//157 156//162 157//164
f 153//147 152//146 164//163 165//165
f 146//149 145//148 157//164 158//166
f 154//150 153//147 165//165 166//167
f 147//151 146//149 158//166 159//168
f 155//152 154//150 166//167 167//169
f 148//153 147//151 159//168 160//158
f 156//162 35//10 168//170
f 164//163 163//161 175//171 176//172
f 157//164 156//162 168//170 169//173
f 165//165 164//163 176//172 177//174
f 158//166 157//164 169//173 170//175
f 166//167 165//165 177//174 178//176
f 159//168 158//166 170//175 171//177
f 167//169 166//167 178//176 179//178
f 160//158 159//168 171//177 172//179
f 161//159 160//158 172//179 173//180
f 162//160 161//159 173//180 174//181
f 163//161 162//160 174//181 175//171
f 178//176 177//174 189//182 190//183
f 171//177 170//175 182//184 183//185
f 179//178 178//176 190//183 191//186
f 172//179 171//177 183//185 184//187
f 173//180 172//179 184//187 185//188
f 174//181 173//180 185//188 186//189
f 175//171 174//181 186//189 187//190
f 168//170 35//10 180//191
f 176//172 175//171 187//190 188//192
f 169//173 168//170 180//191 181//193
f 177//174 176//172 188//192 189//182
f 170//175 169//173 181//193 182//184
f 186//189 185//188 197//194 198//195
f 187//190 186//189 198//195 199//196
f 180//191 35//10 192//197
f 188//192 187//190 199//196 200//198
f 181//193 180//191 192//197 193//199
f 189//182 188//192 200//198 201//200
f 182//184 181//193 193//199 194//201
f 190//183 189//182 201//200 202//202
f 183//185 182//184 194//201 195//203
f 191//186 190//183 202//202 203//204
f 184//187 183//185 195//203 196//205
f 185//188 184//187 196//205 197//194
f 193//199 192//197 204//206 205//207
f 201//200 200//198 212//208 213//209
f 194//201 193//199 205//207 206//210
f 202//202 201//200 213//209 214//211
f 195//203 194//201 206//210 207//212
f 203//204 202//202 214//211 215//213
f 196//205 195//203 207//212 208//214
f 197//194 196//205 208//214 209//215
f 198//195 197//194 209//215 210//216
f 199//196 198//195 210//216 211//217
f 192//197 35//10 204//206
f 200//198 199//196 211//217 212//208
f 215//213 214//211 226//218 227//219
f 208//214 207//212 219//220 220//221
f 209//215 208//214 220//221 221//222
f 210//216 209//215 221//222 222//223
f 211//217 210//216 222//223 223//224
f 204//206 35//10 216//225
f 212//208 211//217 223//224 224//226
f 205//207 204//206 216//225 217//227
f 213//209 212//208 224//226 225//228
f 206//210 205//207 217//227 218//229
f 214//211 213//209 225//228 226//218
f 207//212 206//210 218//229 219//220
f 223//224 222//223 234//230 235//231
f 216//225 35//10 228//232
f 224//226 223//224 235//231 236//233
f 217//227 216//225 228//232 229//234
f 225//228 224//226 236//233 237//235
f 218//229 217//227 229//234 230//236
f 226//218 225//228 237//235 238//237
f 219//220 218//229 230//236 231//238
f 227//219 226//218 238//237 239//239
f 220//221 219//220 231//238 232//240
f 221//222 220//221 232//240 233//241
f 222//223 221//222 233//241 234//230
f 230//236 229//234 1//14 2//18
f 238//237 237//235 8//16 9//20
f 231//238 230//236 2//18 241//22
f 239//239 238//237 9//20 10//24
f 232//240 231//238 241//22 3//2
f 233//241 232//240 3//2 4//1
f 234//230 233//241 4//1 5//5
f 235//231 234//230 5//5 6//7
f 228//232 35//10 240//9
f 236//233 235//231 6//7 7//12
f 229//234 228//232 240//9 1//14
f 237//235 236//233 7//12 8//16
